<?xml version="1.0" encoding="utf-8"?>
<!-- Generator: Adobe Illustrator 27.7.0, SVG Export Plug-In . SVG Version: 6.00 Build 0)  -->
<svg version="1.1" id="Layer_1" xmlns="http://www.w3.org/2000/svg" xmlns:xlink="http://www.w3.org/1999/xlink" x="0px" y="0px"
	 viewBox="0 0 953.1 341.3" style="enable-background:new 0 0 953.1 341.3;" xml:space="preserve">
<style type="text/css">
	.st0{fill:url(#SVGID_1_);stroke:#000000;stroke-width:2;stroke-miterlimit:10;}
	.st1{fill:url(#SVGID_00000051384427909538774870000000543539665643302791_);stroke:#000000;stroke-width:2;stroke-miterlimit:10;}
	.st2{fill:url(#SVGID_00000105396197055225645470000015010535416942402734_);stroke:#000000;stroke-width:2;stroke-miterlimit:10;}
	.st3{enable-background:new    ;}
	.st4{fill:#E10101;}
	.st5{fill:none;stroke:#F2F2F2;stroke-width:2.8977;stroke-miterlimit:9.659;}
	.st6{fill:#E40101;}
	.st7{fill:none;stroke:#F2F2F2;stroke-width:4;stroke-miterlimit:10;}
	.st8{fill:#00018D;}
	.st9{fill:none;stroke:#F2F2F2;stroke-width:1.9318;stroke-miterlimit:9.659;}
</style>
<g id="Layer_2_00000059274697326331595200000017761649975005864583_">
	
		<linearGradient id="SVGID_1_" gradientUnits="userSpaceOnUse" x1="121.8471" y1="346.9479" x2="125.8788" y2="466.7497" gradientTransform="matrix(1 0 0 1 0 -254)">
		<stop  offset="0" style="stop-color:#C1272D"/>
		<stop  offset="0.1093" style="stop-color:#D7191D"/>
		<stop  offset="0.2501" style="stop-color:#ED0B0D"/>
		<stop  offset="0.3855" style="stop-color:#FB0303"/>
		<stop  offset="0.5085" style="stop-color:#FF0000"/>
		<stop  offset="0.5141" style="stop-color:#FE0101"/>
		<stop  offset="0.6301" style="stop-color:#E31214"/>
		<stop  offset="0.7486" style="stop-color:#D01E22"/>
		<stop  offset="0.8703" style="stop-color:#C5252A"/>
		<stop  offset="1" style="stop-color:#C1272D"/>
	</linearGradient>
	<path class="st0" d="M1.2,174.3c0.1-5.5-1-19.5,1.8-24.9c4.1-7.6,5.8,11.8,6.1,14.7c1.5,16.5,7.5,31,17.7,44.2
		c8.9,11.6,24.8,21.1,40.6,18.6c14.2-2.2,24.5-11.2,29.9-24.3c6.1-15-0.7-32.8-8.4-46c-7.4-12.6-19.4-25.2-20.1-40.4
		C67.9,98.8,79,84,89.5,71c10.3-12.7,22.6-22.9,36.9-31.1c15.2-8.7,31.8-15.4,48.6-20.3c8.2-2.3,16.5-5.4,25.1-5.6
		c9-0.1,18.7,0.1,26.5,2.3c3.1,0.9,12.5,3.2,16.1,7.3c2.7,3.1-21,3.1-24.2,3.2c-17.6,0.6-34.5,4.8-50.2,12.6
		c-27.2,13.5-57.5,38.6-57.4,71c0.1,16.8,6.4,33.7,13.4,48.8c5.9,12.9,16.2,28.5,17.1,42.7c1.1,17.4-9.5,33.5-23.8,43.3
		c-16.1,11-35.8,12.3-53.9,6C29.5,239.4,6.4,212.2,1.2,174.3z"/>
	
		<radialGradient id="SVGID_00000041277879197750568000000012172049171115428770_" cx="77.0755" cy="434.3747" r="58.4083" gradientTransform="matrix(1 0 0 1 0 -254)" gradientUnits="userSpaceOnUse">
		<stop  offset="0" style="stop-color:#FFFFFF"/>
		<stop  offset="0.1557" style="stop-color:#C9C9FF"/>
		<stop  offset="0.2222" style="stop-color:#B3B3FF"/>
		<stop  offset="0.4288" style="stop-color:#7474FF"/>
		<stop  offset="0.6173" style="stop-color:#4242FF"/>
		<stop  offset="0.7813" style="stop-color:#1E1EFF"/>
		<stop  offset="0.9144" style="stop-color:#0808FF"/>
		<stop  offset="1" style="stop-color:#0000FF"/>
	</radialGradient>
	
		<path style="fill:url(#SVGID_00000041277879197750568000000012172049171115428770_);stroke:#000000;stroke-width:2;stroke-miterlimit:10;" d="
		M14.3,165.4c-0.1-0.9,0-1.9,0-2.8C16.8,134.1,25.6,110,45,89.1c9.9-10.7,28-26.5,40.8-33.3c2.2-1.2,8.9-6,10-5.5
		c1.2,0.6-3.2,6.7-5.3,9.2c-4.1,4.9-9.9,13.4-14,18.8c-8.4,11-12.9,25.4-12.3,39.3c0.7,14.8,8.6,24,16.6,35.6
		c14.3,20.9,10.6,54.2-15.8,63C33.1,226.7,16.1,191.7,14.3,165.4z"/>
	
		<linearGradient id="SVGID_00000028302362920097217380000010334953690192461499_" gradientUnits="userSpaceOnUse" x1="171.715" y1="462.7261" x2="183.8404" y2="306.1985" gradientTransform="matrix(1 0 0 1 0 -254)">
		<stop  offset="0" style="stop-color:#D4002A"/>
		<stop  offset="2.049065e-02" style="stop-color:#D60B29"/>
		<stop  offset="0.1353" style="stop-color:#DF4327"/>
		<stop  offset="0.2536" style="stop-color:#E87524"/>
		<stop  offset="0.3728" style="stop-color:#EFA022"/>
		<stop  offset="0.493" style="stop-color:#F5C221"/>
		<stop  offset="0.6147" style="stop-color:#F9DD20"/>
		<stop  offset="0.7382" style="stop-color:#FCF01F"/>
		<stop  offset="0.865" style="stop-color:#FEFB1E"/>
		<stop  offset="1" style="stop-color:#FFFF1E"/>
	</linearGradient>
	
		<path style="fill:url(#SVGID_00000028302362920097217380000010334953690192461499_);stroke:#000000;stroke-width:2;stroke-miterlimit:10;" d="
		M151.4,191.5c0.1,0.2-0.2,0.3-0.3,0.2C144,181.6,83.5,91.4,175.7,57.1c0,0,21.5-8,60.1-8.1c0.2,0,0.3,0.2,0.1,0.3
		c-4.2,2.3-29.5,16.8-29.8,29.8c0,0.1,0.1,0.2,0.3,0.2c1.9-0.8,13.8-5.8,29.3-5.9c0.2,0,0.3,0.2,0.1,0.3
		c-5.3,2.5-38.4,20.1-38.4,68.5c0,52.3-6.4,96.6-79.1,115c-0.2,0.1-0.3-0.2-0.2-0.3c5.9-3.5,35-22.8,42.7-63.8
		c2-10.4,1.1-21.1-2.3-31.2c-4.7-14-10-38.5,3.8-51.8c0.1-0.1,0-0.3-0.1-0.3C158.1,109.7,125.5,112.7,151.4,191.5z"/>
</g>
<g id="Layer_1_00000080903097000218568140000013975272693012820137_">
	<g>
		
			<image style="overflow:visible;opacity:0.5;enable-background:new    ;" width="757" height="267" xlink:href="77F6C458.png"  transform="matrix(1 0 0 1 191 5.3)">
		</image>
		<g>
			<g class="st3">
				<path class="st4" d="M228.7,174.6l11.2-36.2h22.8l-3.2,30.1c6.6,2.9,13.5,4.4,22.6,4.4c17.6,0,29.6-10,33.2-23.3
					c3.5-13-1.3-18.8-14.2-25.5l-9.3-4.7c-25.1-13.2-37.9-27.7-30.6-54.8c7.9-29.4,36.4-47.2,73.4-47.2c17.6,0,33.3,4.7,42.9,12.5
					l-11.1,34.3h-22.5l3.1-28.9c-4.6-2-9.4-3.2-15.5-3.2c-14,0-27.6,8.8-31.2,22.3c-3.5,13,2.6,19.6,15.3,26.2l10.1,5.1
					c27.3,14.2,36.6,27.7,30,52.4c-7.7,28.9-35.3,49.4-77.1,49.4C260,187.6,240.3,183.5,228.7,174.6z"/>
				<path class="st4" d="M365.8,152.6c2.3-8.6,4.2-14.9,6.8-24.5l12.5-46.8h-15.9l3.9-14.4l18.8-2.4l21.4-34.3h25l-9.7,34.5h25.7
					l-4.5,16.6H424l-18.4,68.5c-3.1,11.5,0.7,16.6,8,16.6c4.4,0,9-1.7,14.7-5.4l4.5,5.9c-10,12.5-23.1,19.6-41.2,19.6
					C369.6,186.6,359.3,176.8,365.8,152.6z"/>
				<path class="st4" d="M440,124c11-40.9,48.3-63.2,79.8-63.2c32.3,0,44.7,22.3,36.8,51.9c-1.4,5.1-2.9,9.1-4.9,13H481
					c-5.2,25.9,5.6,37.7,22.7,37.7c13.2,0,23.8-5.6,33.2-13.2l6.5,7.8c-15.2,19.3-35.3,28.6-59.1,28.6
					C448.4,186.6,429.5,163.4,440,124z M484.3,113h20.8c11.7,0,16.1-4.4,19.1-15.4c4.3-16.2-1.2-24-10.2-24
					C504.7,73.5,493.3,83.1,484.3,113z"/>
				<path class="st4" d="M648,64.7h46.3l-2.9,10.8l-14.9,2.7l-68.6,105.3h-18.6L573.5,78l-11.3-2.4l2.9-10.8h69.5l-2.9,10.8
					l-16.3,3.2l6.2,62.7l38.2-62.9l-14.6-2.9L648,64.7z"/>
				<path class="st4" d="M671.6,124c11-40.9,48.3-63.2,79.8-63.2c32.3,0,44.7,22.3,36.8,51.9c-1.4,5.1-2.9,9.1-4.9,13h-70.7
					c-5.2,25.9,5.6,37.7,22.7,37.7c13.2,0,23.8-5.6,33.2-13.2l6.5,7.8c-15.2,19.3-35.3,28.6-59.1,28.6
					C680,186.6,661,163.4,671.6,124z M715.9,113h20.8c11.7,0,16.1-4.4,19.1-15.4c4.3-16.2-1.2-24-10.2-24
					C736.3,73.5,724.9,83.1,715.9,113z"/>
				<path class="st4" d="M776.8,175.4l8.7-29.9h19.6l-2.3,24.2c5.3,2.2,10.6,3.4,17.4,3.4c14,0,23-4.7,25.7-14.4
					c2-7.6-1-12.7-15.9-17.4l-12.2-3.9c-17.6-5.6-24.8-18.1-19.8-36.5c6-22.5,28.9-40.1,61.9-40.1c14.4,0,25,3.7,36,10L887,97.5
					h-19.6l0.7-21.1c-3.5-1.5-7.6-2-12.9-2c-11,0-19.6,4.7-22,13.7c-1.8,6.6,0.7,11.3,16.2,16.4l11.1,3.4
					c21.4,6.9,27.3,19.6,22.4,37.9c-6.9,25.7-31.9,40.6-66.5,40.6C800.4,186.6,787.7,183,776.8,175.4z"/>
			</g>
			<g class="st3">
				<path class="st5" d="M228.7,174.6l11.2-36.2h22.8l-3.2,30.1c6.6,2.9,13.5,4.4,22.6,4.4c17.6,0,29.6-10,33.2-23.3
					c3.5-13-1.3-18.8-14.2-25.5l-9.3-4.7c-25.1-13.2-37.9-27.7-30.6-54.8c7.9-29.4,36.4-47.2,73.4-47.2c17.6,0,33.3,4.7,42.9,12.5
					l-11.1,34.3h-22.5l3.1-28.9c-4.6-2-9.4-3.2-15.5-3.2c-14,0-27.6,8.8-31.2,22.3c-3.5,13,2.6,19.6,15.3,26.2l10.1,5.1
					c27.3,14.2,36.6,27.7,30,52.4c-7.7,28.9-35.3,49.4-77.1,49.4C260,187.6,240.3,183.5,228.7,174.6z"/>
				<path class="st5" d="M365.8,152.6c2.3-8.6,4.2-14.9,6.8-24.5l12.5-46.8h-15.9l3.9-14.4l18.8-2.4l21.4-34.3h25l-9.7,34.5h25.7
					l-4.5,16.6H424l-18.4,68.5c-3.1,11.5,0.7,16.6,8,16.6c4.4,0,9-1.7,14.7-5.4l4.5,5.9c-10,12.5-23.1,19.6-41.2,19.6
					C369.6,186.6,359.3,176.8,365.8,152.6z"/>
				<path class="st5" d="M440,124c11-40.9,48.3-63.2,79.8-63.2c32.3,0,44.7,22.3,36.8,51.9c-1.4,5.1-2.9,9.1-4.9,13H481
					c-5.2,25.9,5.6,37.7,22.7,37.7c13.2,0,23.8-5.6,33.2-13.2l6.5,7.8c-15.2,19.3-35.3,28.6-59.1,28.6
					C448.4,186.6,429.5,163.4,440,124z M484.3,113h20.8c11.7,0,16.1-4.4,19.1-15.4c4.3-16.2-1.2-24-10.2-24
					C504.7,73.5,493.3,83.1,484.3,113z"/>
				<path class="st5" d="M648,64.7h46.3l-2.9,10.8l-14.9,2.7l-68.6,105.3h-18.6L573.5,78l-11.3-2.4l2.9-10.8h69.5l-2.9,10.8
					l-16.3,3.2l6.2,62.7l38.2-62.9l-14.6-2.9L648,64.7z"/>
				<path class="st5" d="M671.6,124c11-40.9,48.3-63.2,79.8-63.2c32.3,0,44.7,22.3,36.8,51.9c-1.4,5.1-2.9,9.1-4.9,13h-70.7
					c-5.2,25.9,5.6,37.7,22.7,37.7c13.2,0,23.8-5.6,33.2-13.2l6.5,7.8c-15.2,19.3-35.3,28.6-59.1,28.6
					C680,186.6,661,163.4,671.6,124z M715.9,113h20.8c11.7,0,16.1-4.4,19.1-15.4c4.3-16.2-1.2-24-10.2-24
					C736.3,73.5,724.9,83.1,715.9,113z"/>
				<path class="st5" d="M776.8,175.4l8.7-29.9h19.6l-2.3,24.2c5.3,2.2,10.6,3.4,17.4,3.4c14,0,23-4.7,25.7-14.4
					c2-7.6-1-12.7-15.9-17.4l-12.2-3.9c-17.6-5.6-24.8-18.1-19.8-36.5c6-22.5,28.9-40.1,61.9-40.1c14.4,0,25,3.7,36,10L887,97.5
					h-19.6l0.7-21.1c-3.5-1.5-7.6-2-12.9-2c-11,0-19.6,4.7-22,13.7c-1.8,6.6,0.7,11.3,16.2,16.4l11.1,3.4
					c21.4,6.9,27.3,19.6,22.4,37.9c-6.9,25.7-31.9,40.6-66.5,40.6C800.4,186.6,787.7,183,776.8,175.4z"/>
			</g>
		</g>
	</g>
	<g>
		
			<image style="overflow:visible;opacity:0.5;enable-background:new    ;" width="42" height="82" xlink:href="77F6C45E.png"  transform="matrix(1 0 0 1 801.1296 0)">
		</image>
		<g>
			<path class="st6" d="M806.3,69.3l3.9-46.8c0.4-4.8,2.3-9.4,5.7-12.9c2.5-2.6,5.9-4.6,9.9-3.6c7.1,1.8,6.1,11.1,5.2,15.4
				c-0.3,1.2-0.7,2.4-1.2,3.6l-21.9,44.8C807.5,70.5,806.2,70.2,806.3,69.3z"/>
			<path class="st7" d="M806.3,69.3l3.9-46.8c0.4-4.8,2.3-9.4,5.7-12.9c2.5-2.6,5.9-4.6,9.9-3.6c7.1,1.8,6.1,11.1,5.2,15.4
				c-0.3,1.2-0.7,2.4-1.2,3.6l-21.9,44.8C807.5,70.5,806.2,70.2,806.3,69.3z"/>
		</g>
	</g>
	<g>
		
			<image style="overflow:visible;opacity:0.5;enable-background:new    ;" width="774" height="111" xlink:href="77F6C459.png"  transform="matrix(1 0 0 1 183.1296 194)">
		</image>
		<g>
			<g class="st3">
				<path class="st8" d="M211.7,213.9h22.4c17.1,0,22.2,6.4,19.6,16.3c-2.5,9.4-10.6,17.1-28.4,17.1H223c-1.3,4.7-2.7,9.9-4,15.5
					l7.1,0.7l-1.2,4.4h-27.6l1.2-4.4l6.3-0.7c1.9-6.7,3.8-13.5,5.6-20.4l0.8-3c1.8-6.7,3.7-13.6,5.3-20.4l-6-0.7L211.7,213.9z
					 M230.8,218.7c-2,6.8-3.8,13.7-5.7,20.7l-0.9,3.3h2.4c7.2,0,12.2-5.1,14.2-12.6c2-7.6-1-11.4-8.1-11.4H230.8z"/>
				<path class="st8" d="M246.1,264.1l4.8-1c1.2-4.1,2.4-8.3,3.5-12.4l9.2-34.4l-4.9-0.8l0.9-3.5l18.3-3.7l1.1,0.8l-3.4,11.5
					l-8.1,30.1c-1.1,4.2-2.1,8.3-3.2,12.5l4.3,0.9l-1,3.9H245L246.1,264.1z"/>
				<path class="st8" d="M300.8,261.9c-4.8,4.6-10,7.2-15.3,7.2c-7,0-10.7-3.9-7.6-14.8l5.7-20.1l-4.5-1.1l0.9-3.5l17.4-2.4l1.1,0.9
					l-3.5,11.6l-3.9,14.6c-1.4,5.1-0.2,6.7,2.6,6.7c2.3,0,5.3-1.6,8.1-3.7l6.6-23.3l-4.3-1l0.9-3.2l17.1-2.6l1.1,0.9l-3.4,11.6
					l-6.3,23.3l4,0.9l-1,3.9l-17.1,0.8L300.8,261.9z"/>
				<path class="st8" d="M320.6,264.1l4.7-1c1.1-3.9,2.5-9,3.4-12.4l1.3-4.8c1.2-4.5,1.7-6.2,2.3-9.5l-4.8-0.7l0.9-3.2l17.7-5.5
					l1.2,0.9l-1.1,5.9c5.1-4.5,9.8-6.8,14.7-6.8c5.6,0,8.6,2.5,9,7.3c6-5.5,10.4-7.3,15.2-7.3c8.3,0,10.7,4.8,8.1,14.6l-2.5,9.2
					c-0.9,3.5-2.3,8.5-3.3,12.5l3.9,0.9l-1,3.9H369l1-3.9l4.3-1c1.1-3.9,2.5-8.9,3.4-12.4l2.1-8c1.7-6.2,0.8-7.8-2.6-7.8
					c-2.4,0-5,1.1-7.7,3c-0.2,1-0.4,2.1-0.7,3.2l-2.6,9.6c-1,3.6-2.3,8.5-3.3,12.6l3.6,0.8l-1,3.9h-21.2l1-3.9l4.5-1
					c1.1-3.9,2.5-8.9,3.4-12.4l2.1-7.9c1.5-5.8,1-7.9-2.7-7.9c-2.3,0-5,1.2-7.5,3l-3.4,12.8c-0.9,3.5-2.3,8.5-3.3,12.6l3.6,0.8
					l-1,3.9h-21.6L320.6,264.1z"/>
				<path class="st8" d="M394.3,264.1l4.6-0.9c1.1-3.9,2.5-9,3.4-12.5l9.3-34.7l-4.9-0.7l0.9-3.5l18-3.7l1.1,0.8l-3.4,11.5
					l-3.1,11.6c4.4-3.5,8.8-5.3,13.3-5.3c9,0,14.2,7.2,10.5,20.8c-3.6,13.3-14.1,21.5-23.3,21.5c-4.5,0-7.6-1.6-9.6-4.9l-2.7,4.8
					l-15.2-1.1L394.3,264.1z M419.3,236.4L413,260c1.2,1.5,2.8,2.3,5,2.3c4.8,0,9.5-4.6,12.1-14.3s0.4-13.9-4.5-13.9
					C423.6,234.1,421.4,235,419.3,236.4z"/>
				<path class="st8" d="M443.7,264.1l4.7-1c1.1-3.9,2.5-9,3.4-12.4l1.1-3.9c1.2-4.5,1.8-7.1,2.5-10.4l-4.9-0.7l0.9-3.2l18.7-5.5
					l1.2,0.9l-3.4,11.9l-2.9,10.9c-0.9,3.5-2.3,8.5-3.3,12.6l3.9,0.8l-1,3.9h-21.8L443.7,264.1z M460.9,214.3c1-3.9,4.9-6.6,8.8-6.6
					s6.3,2.7,5.2,6.6c-1,3.8-4.9,6.5-8.7,6.5S459.9,218.1,460.9,214.3z"/>
				<path class="st8" d="M468.6,264.1l4.7-1c1.1-3.9,2.5-9,3.4-12.4l1.3-4.8c1.2-4.5,1.6-6.2,2.3-9.5l-4.8-0.7l0.9-3.2l17.7-5.5
					l1.2,0.9l-1.1,5.9c5.6-5,10.1-6.8,15-6.8c7.1,0,10.6,4.7,8,14.1l-2.6,9.6c-1,3.6-2.3,8.5-3.3,12.6l3.9,0.8l-1,3.9h-21.7l1-3.9
					l4.5-0.9c1.2-4,2.5-9,3.4-12.5l2.3-8.6c1.4-5.3,0.6-7.2-2.6-7.2c-2.1,0-4.9,1.1-7.9,3l-3.4,12.8c-0.9,3.5-2.3,8.5-3.3,12.6
					l3.6,0.8l-1,3.9h-21.6L468.6,264.1z"/>
				<path class="st8" d="M531.9,252.4c-1,1.2-1.6,2.3-2,3.8c-0.5,1.9,0.4,3.1,3.9,3.1h9.6c12.5,0,15.6,4.8,13.6,12
					c-2.2,8.3-12.4,15.3-28.2,15.3c-13.6,0-16.4-4.6-15.1-9.6c0.9-3.5,3.9-6.3,9.1-8.5c-3-1.4-3.7-3.9-3-6.6c1-3.8,4.2-7.2,9.3-10.7
					c-3.9-2.3-5-6.2-3.7-11c2-7.6,9.1-13.3,20.7-13.3c5.9,0,9.9,1.4,12.1,3.8l10.3-3.9l1.1,0.8l-1.7,6.3h-7.8
					c0.5,1.8,0.4,3.9-0.2,6.3c-2,7.4-9.1,13.2-20.8,13.2C536.2,253.4,533.8,253,531.9,252.4z M531.5,281.7c8.2,0,13.1-2.7,14.1-6.3
					c0.6-2.4-0.3-4.7-4.7-4.7h-8.6c-2.9,0-5.4-0.2-7.3-0.7c-1.3,1.6-2.1,2.8-2.6,4.8C521.1,279.6,524,281.7,531.5,281.7z
					 M548.3,240.1c1.5-5.8,0.5-9.2-3.1-9.2c-3.7,0-6.5,3.5-8.1,9.3s-0.9,9.4,2.9,9.4C543.9,249.5,546.8,245.9,548.3,240.1z"/>
			</g>
			<g class="st3">
				<path class="st9" d="M211.7,213.9h22.4c17.1,0,22.2,6.4,19.6,16.3c-2.5,9.4-10.6,17.1-28.4,17.1H223c-1.3,4.7-2.7,9.9-4,15.5
					l7.1,0.7l-1.2,4.4h-27.6l1.2-4.4l6.3-0.7c1.9-6.7,3.8-13.5,5.6-20.4l0.8-3c1.8-6.7,3.7-13.6,5.3-20.4l-6-0.7L211.7,213.9z
					 M230.8,218.7c-2,6.8-3.8,13.7-5.7,20.7l-0.9,3.3h2.4c7.2,0,12.2-5.1,14.2-12.6c2-7.6-1-11.4-8.1-11.4H230.8z"/>
				<path class="st9" d="M246.1,264.1l4.8-1c1.2-4.1,2.4-8.3,3.5-12.4l9.2-34.4l-4.9-0.8l0.9-3.5l18.3-3.7l1.1,0.8l-3.4,11.5
					l-8.1,30.1c-1.1,4.2-2.1,8.3-3.2,12.5l4.3,0.9l-1,3.9H245L246.1,264.1z"/>
				<path class="st9" d="M300.8,261.9c-4.8,4.6-10,7.2-15.3,7.2c-7,0-10.7-3.9-7.6-14.8l5.7-20.1l-4.5-1.1l0.9-3.5l17.4-2.4l1.1,0.9
					l-3.5,11.6l-3.9,14.6c-1.4,5.1-0.2,6.7,2.6,6.7c2.3,0,5.3-1.6,8.1-3.7l6.6-23.3l-4.3-1l0.9-3.2l17.1-2.6l1.1,0.9l-3.4,11.6
					l-6.3,23.3l4,0.9l-1,3.9l-17.1,0.8L300.8,261.9z"/>
				<path class="st9" d="M320.6,264.1l4.7-1c1.1-3.9,2.5-9,3.4-12.4l1.3-4.8c1.2-4.5,1.7-6.2,2.3-9.5l-4.8-0.7l0.9-3.2l17.7-5.5
					l1.2,0.9l-1.1,5.9c5.1-4.5,9.8-6.8,14.7-6.8c5.6,0,8.6,2.5,9,7.3c6-5.5,10.4-7.3,15.2-7.3c8.3,0,10.7,4.8,8.1,14.6l-2.5,9.2
					c-0.9,3.5-2.3,8.5-3.3,12.5l3.9,0.9l-1,3.9H369l1-3.9l4.3-1c1.1-3.9,2.5-8.9,3.4-12.4l2.1-8c1.7-6.2,0.8-7.8-2.6-7.8
					c-2.4,0-5,1.1-7.7,3c-0.2,1-0.4,2.1-0.7,3.2l-2.6,9.6c-1,3.6-2.3,8.5-3.3,12.6l3.6,0.8l-1,3.9h-21.2l1-3.9l4.5-1
					c1.1-3.9,2.5-8.9,3.4-12.4l2.1-7.9c1.5-5.8,1-7.9-2.7-7.9c-2.3,0-5,1.2-7.5,3l-3.4,12.8c-0.9,3.5-2.3,8.5-3.3,12.6l3.6,0.8
					l-1,3.9h-21.6L320.6,264.1z"/>
				<path class="st9" d="M394.3,264.1l4.6-0.9c1.1-3.9,2.5-9,3.4-12.5l9.3-34.7l-4.9-0.7l0.9-3.5l18-3.7l1.1,0.8l-3.4,11.5
					l-3.1,11.6c4.4-3.5,8.8-5.3,13.3-5.3c9,0,14.2,7.2,10.5,20.8c-3.6,13.3-14.1,21.5-23.3,21.5c-4.5,0-7.6-1.6-9.6-4.9l-2.7,4.8
					l-15.2-1.1L394.3,264.1z M419.3,236.4L413,260c1.2,1.5,2.8,2.3,5,2.3c4.8,0,9.5-4.6,12.1-14.3s0.4-13.9-4.5-13.9
					C423.6,234.1,421.4,235,419.3,236.4z"/>
				<path class="st9" d="M443.7,264.1l4.7-1c1.1-3.9,2.5-9,3.4-12.4l1.1-3.9c1.2-4.5,1.8-7.1,2.5-10.4l-4.9-0.7l0.9-3.2l18.7-5.5
					l1.2,0.9l-3.4,11.9l-2.9,10.9c-0.9,3.5-2.3,8.5-3.3,12.6l3.9,0.8l-1,3.9h-21.8L443.7,264.1z M460.9,214.3c1-3.9,4.9-6.6,8.8-6.6
					s6.3,2.7,5.2,6.6c-1,3.8-4.9,6.5-8.7,6.5S459.9,218.1,460.9,214.3z"/>
				<path class="st9" d="M468.6,264.1l4.7-1c1.1-3.9,2.5-9,3.4-12.4l1.3-4.8c1.2-4.5,1.6-6.2,2.3-9.5l-4.8-0.7l0.9-3.2l17.7-5.5
					l1.2,0.9l-1.1,5.9c5.6-5,10.1-6.8,15-6.8c7.1,0,10.6,4.7,8,14.1l-2.6,9.6c-1,3.6-2.3,8.5-3.3,12.6l3.9,0.8l-1,3.9h-21.7l1-3.9
					l4.5-0.9c1.2-4,2.5-9,3.4-12.5l2.3-8.6c1.4-5.3,0.6-7.2-2.6-7.2c-2.1,0-4.9,1.1-7.9,3l-3.4,12.8c-0.9,3.5-2.3,8.5-3.3,12.6
					l3.6,0.8l-1,3.9h-21.6L468.6,264.1z"/>
				<path class="st9" d="M531.9,252.4c-1,1.2-1.6,2.3-2,3.8c-0.5,1.9,0.4,3.1,3.9,3.1h9.6c12.5,0,15.6,4.8,13.6,12
					c-2.2,8.3-12.4,15.3-28.2,15.3c-13.6,0-16.4-4.6-15.1-9.6c0.9-3.5,3.9-6.3,9.1-8.5c-3-1.4-3.7-3.9-3-6.6c1-3.8,4.2-7.2,9.3-10.7
					c-3.9-2.3-5-6.2-3.7-11c2-7.6,9.1-13.3,20.7-13.3c5.9,0,9.9,1.4,12.1,3.8l10.3-3.9l1.1,0.8l-1.7,6.3h-7.8
					c0.5,1.8,0.4,3.9-0.2,6.3c-2,7.4-9.1,13.2-20.8,13.2C536.2,253.4,533.8,253,531.9,252.4z M531.5,281.7c8.2,0,13.1-2.7,14.1-6.3
					c0.6-2.4-0.3-4.7-4.7-4.7h-8.6c-2.9,0-5.4-0.2-7.3-0.7c-1.3,1.6-2.1,2.8-2.6,4.8C521.1,279.6,524,281.7,531.5,281.7z
					 M548.3,240.1c1.5-5.8,0.5-9.2-3.1-9.2c-3.7,0-6.5,3.5-8.1,9.3s-0.9,9.4,2.9,9.4C543.9,249.5,546.8,245.9,548.3,240.1z"/>
			</g>
			<g class="st3">
				<path class="st4" d="M594.3,268.8c-13.6,0-17.4-7-14.8-16.9c2.6-9.9,15.2-15.2,15.2-15.2s-9-2.5-6.4-12.3
					c2.7-10.2,11.4-14.8,23.1-14.8c7.2,0,14.7,3.3,14.7,3.3l-3.5,11.5h-5.3v-6.6c0,0-3-1.2-8.7-1.2c-6.6,0-10.7,3.3-12.1,8.2
					c-1.5,5.8,2.4,9.5,8.2,9.5h25.5l-1.3,4.9l-7,1.6l-2.6,9.9C616.2,262.2,606.6,268.8,594.3,268.8z M602.6,240.8
					c-6.2,0-12.7,4.5-14.4,10.7c-1.9,7,1.8,10.3,8.8,10.3s12.1-3.7,14-10.7l2.8-10.3L602.6,240.8L602.6,240.8z"/>
			</g>
			<g class="st3">
				<path class="st9" d="M594.3,268.8c-13.6,0-17.4-7-14.8-16.9c2.6-9.9,15.2-15.2,15.2-15.2s-9-2.5-6.4-12.3
					c2.7-10.2,11.4-14.8,23.1-14.8c7.2,0,14.7,3.3,14.7,3.3l-3.5,11.5h-5.3v-6.6c0,0-3-1.2-8.7-1.2c-6.6,0-10.7,3.3-12.1,8.2
					c-1.5,5.8,2.4,9.5,8.2,9.5h25.5l-1.3,4.9l-7,1.6l-2.6,9.9C616.2,262.2,606.6,268.8,594.3,268.8z M602.6,240.8
					c-6.2,0-12.7,4.5-14.4,10.7c-1.9,7,1.8,10.3,8.8,10.3s12.1-3.7,14-10.7l2.8-10.3L602.6,240.8L602.6,240.8z"/>
			</g>
			<g class="st3">
				<path class="st4" d="M688.2,213.9h26l-1.2,4.4l-6.3,0.7c-1.9,6.7-3.8,13.5-5.6,20.4l-0.8,3c-1.8,6.7-3.7,13.6-5.3,20.4l5.9,0.7
					l-1.2,4.4h-26l1.2-4.4l5.9-0.6c2-6.7,3.8-13.6,5.6-20.3h-17.5c-2,7.3-3.7,13.8-5.3,20.3l5.6,0.6l-1.2,4.4h-25.9l1.2-4.4l6.2-0.7
					c1.9-6.7,3.8-13.5,5.6-20.4l0.8-3c1.8-6.7,3.6-13.6,5.3-20.4l-5.8-0.7l1.2-4.4h25.9l-1.2,4.4l-5.9,0.6c-2,6.7-3.8,13.6-5.2,18.8
					h17.5c1.7-6.2,3.4-12.6,4.9-18.8l-5.6-0.6L688.2,213.9z"/>
				<path class="st4" d="M706.9,248.1c3.7-13.7,16.2-21.2,26.8-21.2c10.9,0,15,7.5,12.3,17.4c-0.5,1.7-1,3-1.7,4.4h-23.8
					c-1.8,8.7,1.9,12.7,7.6,12.7c4.4,0,8-1.9,11.1-4.4l2.2,2.6c-5.1,6.5-11.9,9.6-19.8,9.6C709.7,269.2,703.3,261.4,706.9,248.1z
					 M721.8,244.4h7c3.9,0,5.4-1.5,6.4-5.2c1.5-5.4-0.4-8.1-3.4-8.1C728.6,231.2,724.8,234.4,721.8,244.4z"/>
				<path class="st4" d="M767.2,263.2c-4.5,3.8-7.7,6-13.4,6c-6.3,0-9.8-3.7-7.9-10.5c1.6-5.8,5.9-9.9,19.5-13.6
					c1.8-0.5,4.2-1.1,6.7-1.6l0.7-2.7c2-7.3,1.1-9.5-4.1-9.5c-0.7,0-1.4,0-2.2,0.1l-1.4,3.6c-1.6,5.4-4.8,7.6-8,7.6
					c-3,0-4.5-1.4-4.4-4.1c2.2-6.8,10.2-11.5,22-11.5c10.5,0,13.5,4.5,10.5,15.5l-4.9,18.4c-0.4,1.6,0,2.4,1.2,2.4
					c0.9,0,1.7-0.4,3-1.8l1.8,1.5c-3.2,4.4-6.6,6.2-11.5,6.2C769.9,269.1,767.4,266.9,767.2,263.2z M762,262.5
					c1.2,0,2.2-0.3,5.6-2.3l3.6-13.3c-1.6,0.5-3.1,1-4.2,1.4c-4.1,1.6-7.2,4.4-8.3,8.2C757.5,260.6,759.2,262.5,762,262.5z"/>
				<path class="st4" d="M792.5,257.7c0.8-2.9,1.4-5,2.3-8.2l4.2-15.7h-5.3l1.3-4.8l6.3-0.8l7.2-11.5h8.4l-3.3,11.6h8.6l-1.5,5.6
					h-8.6l-6.2,23c-1,3.9,0.2,5.6,2.7,5.6c1.5,0,3-0.6,4.9-1.8l1.5,2c-3.3,4.2-7.8,6.6-13.8,6.6
					C793.8,269.2,790.3,265.9,792.5,257.7z"/>
				<path class="st4" d="M815.6,264.1l4.7-1c1.1-3.9,2.5-9,3.4-12.4l1.1-3.9c1.2-4.5,1.8-7.1,2.5-10.4l-4.9-0.7l0.9-3.2L842,227
					l1.2,0.9l-3.4,11.9l-2.9,10.9c-0.9,3.5-2.3,8.5-3.3,12.6l3.9,0.8l-1,3.9h-21.8L815.6,264.1z M832.9,214.3c1-3.9,4.9-6.6,8.8-6.6
					s6.3,2.7,5.2,6.6c-1,3.8-4.9,6.5-8.7,6.5S831.9,218.1,832.9,214.3z"/>
				<path class="st4" d="M840.5,264.1l4.7-1c1.1-3.9,2.5-9,3.4-12.4l1.3-4.8c1.2-4.5,1.6-6.2,2.3-9.5l-4.8-0.7l0.9-3.2L866,227
					l1.2,0.9l-1.1,5.9c5.6-5,10.1-6.8,15-6.8c7.1,0,10.6,4.7,8,14.1l-2.6,9.6c-1,3.6-2.3,8.5-3.3,12.6l3.9,0.8l-1,3.9h-21.7l1-3.9
					l4.5-0.9c1.2-4,2.5-9,3.4-12.5l2.3-8.6c1.4-5.3,0.6-7.2-2.6-7.2c-2.1,0-4.9,1.1-7.9,3l-3.4,12.8c-0.9,3.5-2.3,8.5-3.3,12.6
					l3.6,0.8l-1,3.9h-21.6L840.5,264.1z"/>
				<path class="st4" d="M903.8,252.4c-1,1.2-1.6,2.3-2,3.8c-0.5,1.9,0.4,3.1,3.9,3.1h9.6c12.5,0,15.6,4.8,13.6,12
					c-2.2,8.3-12.4,15.3-28.2,15.3c-13.6,0-16.4-4.6-15.1-9.6c0.9-3.5,3.9-6.3,9.1-8.5c-3-1.4-3.7-3.9-3-6.6c1-3.8,4.2-7.2,9.3-10.7
					c-3.9-2.3-5-6.2-3.7-11c2-7.6,9.1-13.3,20.7-13.3c5.9,0,9.9,1.4,12.1,3.8l10.3-3.9l1.1,0.8l-1.7,6.3H932
					c0.5,1.8,0.4,3.9-0.2,6.3c-2,7.4-9.1,13.2-20.8,13.2C908.2,253.4,905.8,253,903.8,252.4z M903.4,281.7c8.2,0,13.1-2.7,14.1-6.3
					c0.6-2.4-0.3-4.7-4.7-4.7h-8.6c-2.9,0-5.4-0.2-7.3-0.7c-1.3,1.6-2.1,2.8-2.6,4.8C893,279.6,896,281.7,903.4,281.7z M920.3,240.1
					c1.5-5.8,0.5-9.2-3.1-9.2c-3.7,0-6.5,3.5-8.1,9.3s-0.9,9.4,2.9,9.4C915.9,249.5,918.7,245.9,920.3,240.1z"/>
			</g>
			<g class="st3">
				<path class="st9" d="M688.2,213.9h26l-1.2,4.4l-6.3,0.7c-1.9,6.7-3.8,13.5-5.6,20.4l-0.8,3c-1.8,6.7-3.7,13.6-5.3,20.4l5.9,0.7
					l-1.2,4.4h-26l1.2-4.4l5.9-0.6c2-6.7,3.8-13.6,5.6-20.3h-17.5c-2,7.3-3.7,13.8-5.3,20.3l5.6,0.6l-1.2,4.4h-25.9l1.2-4.4l6.2-0.7
					c1.9-6.7,3.8-13.5,5.6-20.4l0.8-3c1.8-6.7,3.6-13.6,5.3-20.4l-5.8-0.7l1.2-4.4h25.9l-1.2,4.4l-5.9,0.6c-2,6.7-3.8,13.6-5.2,18.8
					h17.5c1.7-6.2,3.4-12.6,4.9-18.8l-5.6-0.6L688.2,213.9z"/>
				<path class="st9" d="M706.9,248.1c3.7-13.7,16.2-21.2,26.8-21.2c10.9,0,15,7.5,12.3,17.4c-0.5,1.7-1,3-1.7,4.4h-23.8
					c-1.8,8.7,1.9,12.7,7.6,12.7c4.4,0,8-1.9,11.1-4.4l2.2,2.6c-5.1,6.5-11.9,9.6-19.8,9.6C709.7,269.2,703.3,261.4,706.9,248.1z
					 M721.8,244.4h7c3.9,0,5.4-1.5,6.4-5.2c1.5-5.4-0.4-8.1-3.4-8.1C728.6,231.2,724.8,234.4,721.8,244.4z"/>
				<path class="st9" d="M767.2,263.2c-4.5,3.8-7.7,6-13.4,6c-6.3,0-9.8-3.7-7.9-10.5c1.6-5.8,5.9-9.9,19.5-13.6
					c1.8-0.5,4.2-1.1,6.7-1.6l0.7-2.7c2-7.3,1.1-9.5-4.1-9.5c-0.7,0-1.4,0-2.2,0.1l-1.4,3.6c-1.6,5.4-4.8,7.6-8,7.6
					c-3,0-4.5-1.4-4.4-4.1c2.2-6.8,10.2-11.5,22-11.5c10.5,0,13.5,4.5,10.5,15.5l-4.9,18.4c-0.4,1.6,0,2.4,1.2,2.4
					c0.9,0,1.7-0.4,3-1.8l1.8,1.5c-3.2,4.4-6.6,6.2-11.5,6.2C769.9,269.1,767.4,266.9,767.2,263.2z M762,262.5
					c1.2,0,2.2-0.3,5.6-2.3l3.6-13.3c-1.6,0.5-3.1,1-4.2,1.4c-4.1,1.6-7.2,4.4-8.3,8.2C757.5,260.6,759.2,262.5,762,262.5z"/>
				<path class="st9" d="M792.5,257.7c0.8-2.9,1.4-5,2.3-8.2l4.2-15.7h-5.3l1.3-4.8l6.3-0.8l7.2-11.5h8.4l-3.3,11.6h8.6l-1.5,5.6
					h-8.6l-6.2,23c-1,3.9,0.2,5.6,2.7,5.6c1.5,0,3-0.6,4.9-1.8l1.5,2c-3.3,4.2-7.8,6.6-13.8,6.6
					C793.8,269.2,790.3,265.9,792.5,257.7z"/>
				<path class="st9" d="M815.6,264.1l4.7-1c1.1-3.9,2.5-9,3.4-12.4l1.1-3.9c1.2-4.5,1.8-7.1,2.5-10.4l-4.9-0.7l0.9-3.2L842,227
					l1.2,0.9l-3.4,11.9l-2.9,10.9c-0.9,3.5-2.3,8.5-3.3,12.6l3.9,0.8l-1,3.9h-21.8L815.6,264.1z M832.9,214.3c1-3.9,4.9-6.6,8.8-6.6
					s6.3,2.7,5.2,6.6c-1,3.8-4.9,6.5-8.7,6.5S831.9,218.1,832.9,214.3z"/>
				<path class="st9" d="M840.5,264.1l4.7-1c1.1-3.9,2.5-9,3.4-12.4l1.3-4.8c1.2-4.5,1.6-6.2,2.3-9.5l-4.8-0.7l0.9-3.2L866,227
					l1.2,0.9l-1.1,5.9c5.6-5,10.1-6.8,15-6.8c7.1,0,10.6,4.7,8,14.1l-2.6,9.6c-1,3.6-2.3,8.5-3.3,12.6l3.9,0.8l-1,3.9h-21.7l1-3.9
					l4.5-0.9c1.2-4,2.5-9,3.4-12.5l2.3-8.6c1.4-5.3,0.6-7.2-2.6-7.2c-2.1,0-4.9,1.1-7.9,3l-3.4,12.8c-0.9,3.5-2.3,8.5-3.3,12.6
					l3.6,0.8l-1,3.9h-21.6L840.5,264.1z"/>
				<path class="st9" d="M903.8,252.4c-1,1.2-1.6,2.3-2,3.8c-0.5,1.9,0.4,3.1,3.9,3.1h9.6c12.5,0,15.6,4.8,13.6,12
					c-2.2,8.3-12.4,15.3-28.2,15.3c-13.6,0-16.4-4.6-15.1-9.6c0.9-3.5,3.9-6.3,9.1-8.5c-3-1.4-3.7-3.9-3-6.6c1-3.8,4.2-7.2,9.3-10.7
					c-3.9-2.3-5-6.2-3.7-11c2-7.6,9.1-13.3,20.7-13.3c5.9,0,9.9,1.4,12.1,3.8l10.3-3.9l1.1,0.8l-1.7,6.3H932
					c0.5,1.8,0.4,3.9-0.2,6.3c-2,7.4-9.1,13.2-20.8,13.2C908.2,253.4,905.8,253,903.8,252.4z M903.4,281.7c8.2,0,13.1-2.7,14.1-6.3
					c0.6-2.4-0.3-4.7-4.7-4.7h-8.6c-2.9,0-5.4-0.2-7.3-0.7c-1.3,1.6-2.1,2.8-2.6,4.8C893,279.6,896,281.7,903.4,281.7z M920.3,240.1
					c1.5-5.8,0.5-9.2-3.1-9.2c-3.7,0-6.5,3.5-8.1,9.3s-0.9,9.4,2.9,9.4C915.9,249.5,918.7,245.9,920.3,240.1z"/>
			</g>
		</g>
	</g>
	<g class="st3">
		<path d="M90.1,304.1l0.3,1.1c-1.7,1-3.1,2.1-4.3,3.7l1,1c0.8,0.8,0.9,1.7,0.7,2.6c-0.4,1.5-1.6,2.3-2.9,2.3
			c-0.9,0-1.5-0.3-1.9-0.8c-0.2-0.8-0.1-1.7,0.1-2.6C83.9,308.3,86.8,305.6,90.1,304.1z M97.3,304.1l0.3,1.1c-1.7,1-3.1,2.1-4.3,3.7
			l1,1c0.8,0.8,0.9,1.7,0.7,2.6c-0.4,1.5-1.6,2.3-2.9,2.3c-0.9,0-1.5-0.3-1.9-0.8c-0.2-0.8-0.1-1.7,0.1-2.6
			C91.1,308.3,94,305.6,97.3,304.1z"/>
		<path d="M123.9,306.9h7.6l-0.4,1.6l-2.9,0.5l-11.7,21h-2.4l-0.9-16.9l-9.8,16.9H101l-0.6-21.2l-2.5-0.3l0.4-1.6h10.1l-0.4,1.6
			l-3,0.3l-0.1,15l8.8-15l-2.9-0.3l0.4-1.6h9.9l-0.4,1.6l-3.4,0.4l0.5,15.2l8.3-15.2l-2.7-0.4L123.9,306.9z"/>
		<path d="M126.4,321.6c1.5-5.6,6.4-8.9,10.8-8.9c4.1,0,6.1,2.8,4.9,7c-0.2,0.8-0.4,1.4-0.7,1.9h-10.6c-0.9,4,0.7,6,3.6,6
			c2,0,3.6-0.9,5.1-2.2l0.8,0.9c-2,2.6-4.8,4-8,4C127.4,330.4,124.9,327.1,126.4,321.6z M131.2,320h4.8c1.7,0,2.3-0.7,2.6-2
			c0.6-2.1-0.4-3.6-2.1-3.6S132.6,315.9,131.2,320z"/>
		<path d="M145.8,314.8l-0.3-1.1c1.7-1,3.1-2.1,4.3-3.7l-1-1c-0.8-0.8-0.9-1.7-0.7-2.6c0.4-1.5,1.6-2.3,2.9-2.3
			c0.9,0,1.5,0.3,1.9,0.8c0.2,0.8,0.1,1.7-0.1,2.6C152,310.6,149.1,313.3,145.8,314.8z"/>
		<path d="M148,328.4l2.3-0.4c0.5-1.7,1.1-4,1.5-5.4l0.5-1.8c0.5-1.9,0.7-2.8,1-4.2l-2.3-0.3l0.4-1.3l6.4-2.2l0.5,0.3l-0.8,4.1
			c1.8-2.8,4.2-4.4,6-4.4c1.2,0,2.2,0.7,2.2,1.9c-0.5,1.7-1.6,2.7-3,2.7c-0.9,0-1.5-0.4-2-1.2l-0.2-0.3c-1.5,1-2.8,2.5-3.8,4.3
			l-0.7,2.5c-0.4,1.5-1,3.6-1.4,5.3l2.7,0.6l-0.4,1.4h-9.3L148,328.4z"/>
		<path d="M164.8,321.6c1.5-5.6,6.4-8.9,10.8-8.9c4.1,0,6.1,2.8,4.9,7c-0.2,0.8-0.4,1.4-0.7,1.9h-10.6c-0.9,4,0.7,6,3.6,6
			c2,0,3.6-0.9,5.1-2.2l0.8,0.9c-2,2.6-4.8,4-8,4C165.8,330.4,163.3,327.1,164.8,321.6z M169.6,320h4.8c1.7,0,2.3-0.7,2.6-2
			c0.6-2.1-0.4-3.6-2.1-3.6S171,315.9,169.6,320z"/>
		<path d="M190.8,326c0.3-1,0.5-1.9,0.9-3.2l2-7.4h-2.6l0.5-1.8l2.9-0.3l2.6-4.8h2.8l-1.4,4.8h4.2l-0.6,2.1h-4.2l-2.7,10.2
			c-0.5,1.7,0.1,2.5,1.2,2.5c0.7,0,1.4-0.3,2.3-0.9l0.6,0.9c-1.3,1.5-3,2.3-5.2,2.3C191.3,330.4,190,329,190.8,326z"/>
		<path d="M200.1,328.4l2.4-0.5c0.5-1.7,1.1-3.9,1.5-5.4l4-14.9l-2.4-0.3l0.4-1.4l6.6-1.6l0.4,0.3l-1.5,4.9l-1.7,6.2
			c2.3-2,4.6-3.1,6.8-3.1c3,0,4.2,1.9,3.1,6.2l-1,3.6c-0.4,1.6-1,3.7-1.4,5.4l2,0.4l-0.4,1.4h-8.6l0.4-1.4l2.3-0.5
			c0.5-1.7,1.1-3.9,1.5-5.4l0.9-3.3c0.7-2.7,0.3-3.6-1.4-3.6c-1.3,0-2.8,0.6-4.6,2l-1.3,4.9c-0.4,1.5-1,3.7-1.4,5.4l1.9,0.4
			l-0.4,1.4h-8.6L200.1,328.4z"/>
		<path d="M223.4,321.6c1.5-5.6,6.4-8.9,10.8-8.9c4.1,0,6.1,2.8,4.9,7c-0.2,0.8-0.4,1.4-0.7,1.9h-10.6c-0.9,4,0.7,6,3.6,6
			c2,0,3.6-0.9,5.1-2.2l0.8,0.9c-2,2.6-4.8,4-8,4C224.4,330.4,221.9,327.1,223.4,321.6z M228.3,320h4.8c1.7,0,2.3-0.7,2.6-2
			c0.6-2.1-0.4-3.6-2.1-3.6S229.6,315.9,228.3,320z"/>
		<path d="M252.7,323.7c-0.6,0.6-1,1.2-1.2,1.9c-0.2,0.9,0.1,1.4,1.6,1.4h4.3c4.5,0,5.8,1.8,5,4.8c-0.9,3.3-4.9,6.2-11,6.2
			c-5.4,0-6.8-1.8-6.2-4.1c0.4-1.5,1.6-2.7,4.1-3.7c-1.3-0.5-1.7-1.5-1.4-2.7c0.4-1.3,1.5-2.6,3.6-4.2c-1.5-0.9-2.1-2.6-1.5-4.8
			c0.9-3.4,4-5.7,8.3-5.7c2.1,0,3.6,0.5,4.5,1.5l4.3-1.5l0.4,0.3l-0.7,2.4h-3.4c0.3,0.8,0.2,1.8-0.1,2.9c-0.9,3.4-4,5.6-8.2,5.6
			C254.4,324,253.5,323.9,252.7,323.7z M252.4,336.1c3.6,0,5.9-1.4,6.4-3.1c0.3-1.3-0.2-2.4-2.4-2.4h-3.9c-0.9,0-1.6-0.1-2.2-0.2
			c-0.9,0.9-1.4,1.6-1.6,2.6C248.1,335.2,249.5,336.1,252.4,336.1z M260,318.3c0.7-2.4,0-4-1.8-4c-1.9,0-3.4,1.6-4.1,4.1
			c-0.7,2.5-0.1,4.1,1.7,4.1C257.8,322.5,259.3,320.8,260,318.3z"/>
		<path d="M266.9,321.6c1.5-5.6,6.2-8.8,10.7-8.8c4.4,0,7.5,3.2,6,8.8c-1.5,5.6-6.1,8.8-10.7,8.8
			C268.2,330.4,265.5,327.1,266.9,321.6z M279.1,321.6c1.3-4.8,0.6-7.1-1.9-7.1s-4.4,2.4-5.7,7.1s-0.6,7,1.9,7
			C275.9,328.7,277.9,326.4,279.1,321.6z"/>
		<path d="M286.4,321.6c1.5-5.6,6.2-8.8,10.7-8.8c4.4,0,7.5,3.2,6,8.8c-1.5,5.6-6.1,8.8-10.7,8.8
			C287.7,330.4,284.9,327.1,286.4,321.6z M298.6,321.6c1.3-4.8,0.6-7.1-1.9-7.1s-4.4,2.4-5.7,7.1s-0.6,7,1.9,7
			C295.4,328.7,297.3,326.4,298.6,321.6z"/>
		<path d="M316,328.1c-1.7,1.5-3.4,2.3-5.5,2.3c-4.1,0-6.1-3.3-4.7-8.6c1.5-5.5,5.8-9,9.9-9c1.8,0,3,0.6,3.8,2.1l1.9-7.1l-2.6-0.3
			l0.4-1.4l6.8-1.6l0.4,0.3l-1.5,4.9l-4.9,18.4l2.2,0.4l-0.4,1.4l-6.1,0.4L316,328.1z M312.9,327.9c1.2,0,2.3-0.5,3.4-1.4l2.7-10
			c-0.8-0.9-1.6-1.3-2.7-1.3c-2.3,0-4.8,2-6,6.5C309.2,325.8,310.4,327.9,312.9,327.9z"/>
		<path d="M337.5,323.7c-0.6,0.6-1,1.2-1.2,1.9c-0.2,0.9,0.1,1.4,1.6,1.4h4.3c4.5,0,5.8,1.8,5,4.8c-0.9,3.3-4.9,6.2-11,6.2
			c-5.4,0-6.8-1.8-6.2-4.1c0.4-1.5,1.6-2.7,4.1-3.7c-1.3-0.5-1.7-1.5-1.4-2.7c0.4-1.3,1.5-2.6,3.6-4.2c-1.5-0.9-2.1-2.6-1.5-4.8
			c0.9-3.4,4-5.7,8.3-5.7c2.1,0,3.6,0.5,4.5,1.5l4.3-1.5l0.4,0.3l-0.7,2.4h-3.4c0.3,0.8,0.2,1.8-0.1,2.9c-0.9,3.4-4,5.6-8.2,5.6
			C339.2,324,338.2,323.9,337.5,323.7z M337.1,336.1c3.6,0,5.9-1.4,6.4-3.1c0.3-1.3-0.2-2.4-2.4-2.4h-3.9c-0.9,0-1.6-0.1-2.2-0.2
			c-0.9,0.9-1.4,1.6-1.6,2.6C332.8,335.2,334.2,336.1,337.1,336.1z M344.7,318.3c0.7-2.4,0-4-1.8-4c-1.9,0-3.4,1.6-4.1,4.1
			s-0.1,4.1,1.7,4.1C342.5,322.5,344,320.8,344.7,318.3z"/>
		<path d="M362.9,327.1c-2.3,2.2-4.6,3.2-6.8,3.2c-2.9,0-4.3-1.7-3-6.2l2.4-8.6l-2.1-0.5l0.4-1.4l6.3-0.7l0.3,0.4l-1.5,4.9l-1.5,5.8
			c-0.7,2.6-0.1,3.5,1.4,3.5c1.3,0,2.9-0.8,4.5-2l2.8-10L364,315l0.3-1.3l6.1-0.8l0.3,0.4l-1.4,4.9l-2.6,9.8l2,0.5l-0.4,1.4l-6,0.3
			L362.9,327.1z"/>
		<path d="M384.6,313.2h6.7l-0.4,1.4l-2,0.4l-10.1,15.5c-3.4,5.3-5.9,7.8-8.9,7.8c-1.8,0-3.1-1-2.8-2.4c0.6-1.2,1.9-1.9,3.1-1.9
			c0.9,0,1.7,0.3,2.4,1.5l0.1,0.3c1.6-1.2,2.9-2.8,4-4.5l0.1-0.2l-2.3-16.1l-1.7-0.3l0.4-1.4h9.1l-0.4,1.4l-2.8,0.4l1,10.6l6.6-10.6
			l-2.5-0.4L384.6,313.2z"/>
		<path d="M388.1,328.9l1-4h2.3l-0.2,3.2c0.7,0.3,1.6,0.5,2.6,0.5c2.4,0,3.7-0.9,4.1-2.4c0.3-1.3-0.3-2-2.3-2.7l-1.6-0.6
			c-2.4-0.8-3.5-2.4-2.9-4.9c0.8-2.9,3.7-5.3,8-5.3c2,0,3.4,0.5,4.8,1.4l-1.1,3.6h-2.3l0.2-2.9c-0.6-0.3-1.2-0.4-2-0.4
			c-1.8,0-3.1,0.8-3.5,2.2c-0.3,1.2,0.2,1.9,2.3,2.7l1.3,0.4c3.1,1.1,3.9,2.8,3.3,5.2c-0.8,3.1-4,5.3-8.7,5.3
			C391.2,330.4,389.6,329.9,388.1,328.9z"/>
		<path d="M425.5,313.2h6.7l-0.4,1.4l-2,0.4l-10.1,15.5c-3.4,5.3-5.9,7.8-8.9,7.8c-1.8,0-3.1-1-2.8-2.4c0.6-1.2,1.9-1.9,3.1-1.9
			c0.9,0,1.7,0.3,2.4,1.5l0.1,0.3c1.6-1.2,2.9-2.8,4-4.5l0.1-0.2l-2.3-16.1l-1.7-0.3l0.4-1.4h9.1l-0.4,1.4l-2.8,0.4l1,10.6l6.6-10.6
			l-2.5-0.4L425.5,313.2z"/>
		<path d="M430.4,321.6c1.5-5.6,6.2-8.8,10.7-8.8c4.4,0,7.5,3.2,6,8.8c-1.5,5.6-6.1,8.8-10.7,8.8
			C431.7,330.4,428.9,327.1,430.4,321.6z M442.6,321.6c1.3-4.8,0.6-7.1-1.9-7.1s-4.4,2.4-5.7,7.1c-1.3,4.8-0.6,7,1.9,7
			C439.4,328.7,441.3,326.4,442.6,321.6z"/>
		<path d="M460.3,327.1c-2.3,2.2-4.6,3.2-6.8,3.2c-2.9,0-4.3-1.7-3-6.2l2.4-8.6l-2.1-0.5l0.4-1.4l6.3-0.7l0.3,0.4l-1.5,4.9l-1.5,5.8
			c-0.7,2.6-0.1,3.5,1.4,3.5c1.3,0,2.9-0.8,4.5-2l2.8-10l-2.1-0.5l0.3-1.3l6.1-0.8l0.3,0.4l-1.4,4.9l-2.6,9.8l2,0.5l-0.4,1.4l-6,0.3
			L460.3,327.1z"/>
		<path d="M468.3,328.4l2.3-0.4c0.5-1.7,1.1-4,1.5-5.4l0.5-1.8c0.5-1.9,0.7-2.8,1-4.2l-2.3-0.3l0.4-1.3l6.4-2.2l0.5,0.3l-0.8,4.1
			c1.8-2.8,4.2-4.4,6-4.4c1.2,0,2.2,0.7,2.2,1.9c-0.5,1.7-1.6,2.7-3,2.7c-0.9,0-1.5-0.4-2-1.2l-0.2-0.3c-1.5,1-2.8,2.5-3.8,4.3
			l-0.7,2.5c-0.4,1.5-1,3.6-1.4,5.3l2.7,0.6l-0.4,1.4h-9.3L468.3,328.4z"/>
		<path d="M491.3,328.4l2.4-0.5c0.5-1.8,1-3.6,1.5-5.4l1.9-7.2h-2.6l0.5-1.8l2.8-0.3c1.3-3.4,2.4-5.3,4.5-6.9c2-1.6,4.1-2.2,5.9-2.2
			s3.2,0.6,3.2,2.2c-0.4,1.1-1.4,1.9-2.8,1.9c-1,0-1.8-0.6-2.3-1.7l-0.5-0.6c-0.1,0.1-0.2,0.1-0.3,0.2c-1.6,1.2-2.7,3.4-3.6,7.2h4.3
			l-0.6,2.1h-4.2l-1.9,7.2c-0.5,1.8-0.9,3.5-1.4,5.3l2.8,0.5l-0.4,1.4H491L491.3,328.4z"/>
		<path d="M503.8,328.4l2.3-0.4c0.5-1.7,1.1-4,1.5-5.4l0.5-1.8c0.5-1.9,0.7-2.8,1-4.2l-2.3-0.3l0.4-1.3l6.4-2.2l0.5,0.3l-0.8,4.1
			c1.8-2.8,4.2-4.4,6-4.4c1.2,0,2.2,0.7,2.2,1.9c-0.5,1.7-1.6,2.7-3,2.7c-0.9,0-1.5-0.4-2-1.2l-0.2-0.3c-1.5,1-2.8,2.5-3.8,4.3
			l-0.7,2.5c-0.4,1.5-1,3.6-1.4,5.3l2.7,0.6l-0.4,1.4h-9.3L503.8,328.4z"/>
		<path d="M519.1,328.4l2.4-0.5c0.5-1.7,1.1-3.9,1.5-5.4l0.4-1.6c0.5-1.9,0.8-3,1.1-4.4l-2.4-0.3l0.4-1.3l6.8-2.2l0.5,0.3l-1.4,4.9
			l-1.2,4.6c-0.4,1.5-1,3.7-1.4,5.4l2,0.4l-0.4,1.4h-8.6L519.1,328.4z M526.6,307.1c0.4-1.5,1.8-2.5,3.3-2.5s2.3,1,1.9,2.5
			c-0.4,1.4-1.8,2.5-3.3,2.5C527,309.5,526.2,308.5,526.6,307.1z"/>
		<path d="M531.7,321.6c1.5-5.6,6.4-8.9,10.8-8.9c4.1,0,6.1,2.8,4.9,7c-0.2,0.8-0.4,1.4-0.7,1.9h-10.6c-0.9,4,0.7,6,3.6,6
			c2,0,3.6-0.9,5.1-2.2l0.8,0.9c-2,2.6-4.8,4-8,4C532.7,330.4,530.3,327.1,531.7,321.6z M536.6,320h4.8c1.7,0,2.3-0.7,2.6-2
			c0.6-2.1-0.4-3.6-2.1-3.6S538,315.9,536.6,320z"/>
		<path d="M547.7,328.4l2.4-0.5c0.5-1.7,1.1-3.9,1.5-5.4l0.5-1.8c0.5-1.9,0.7-2.8,1-4.2l-2.3-0.3l0.4-1.3l6.4-2.2l0.5,0.3l-0.5,2.7
			c2.3-2,4.6-3,6.7-3c3,0,4.2,1.9,3.1,6.2l-1,3.6c-0.4,1.6-1,3.7-1.4,5.4l2,0.4l-0.4,1.4H558l0.4-1.4l2.3-0.5
			c0.5-1.7,1.1-3.9,1.5-5.4l0.9-3.3c0.7-2.7,0.3-3.6-1.5-3.6c-1.2,0-2.6,0.6-4.3,1.7l-1.4,5.2c-0.4,1.5-1,3.7-1.4,5.4l1.9,0.4
			l-0.4,1.4h-8.6L547.7,328.4z"/>
		<path d="M581,328.1c-1.7,1.5-3.4,2.3-5.5,2.3c-4.1,0-6.1-3.3-4.7-8.6c1.5-5.5,5.8-9,9.9-9c1.8,0,3,0.6,3.8,2.1l1.9-7.1l-2.6-0.3
			l0.4-1.4l6.8-1.6l0.4,0.3l-1.5,4.9l-4.9,18.4l2.2,0.4l-0.4,1.4l-6.1,0.4L581,328.1z M577.8,327.9c1.2,0,2.3-0.5,3.4-1.4l2.7-10
			c-0.8-0.9-1.6-1.3-2.7-1.3c-2.3,0-4.8,2-6,6.5C574.1,325.8,575.4,327.9,577.8,327.9z"/>
		<path d="M589.1,328.9l1-4h2.3l-0.2,3.2c0.7,0.3,1.6,0.5,2.6,0.5c2.4,0,3.7-0.9,4.1-2.4c0.3-1.3-0.3-2-2.3-2.7l-1.6-0.6
			c-2.4-0.8-3.5-2.4-2.9-4.9c0.8-2.9,3.7-5.3,8-5.3c2,0,3.4,0.5,4.8,1.4l-1.1,3.6h-2.3l0.2-2.9c-0.6-0.3-1.2-0.4-2-0.4
			c-1.8,0-3.1,0.8-3.5,2.2c-0.3,1.2,0.2,1.9,2.3,2.7l1.3,0.4c3.1,1.1,3.9,2.8,3.3,5.2c-0.8,3.1-4,5.3-8.7,5.3
			C592.2,330.4,590.6,329.9,589.1,328.9z"/>
		<path d="M614.6,326c0.3-1,0.5-1.9,0.9-3.2l2-7.4h-2.6l0.5-1.8l2.9-0.3l2.6-4.8h2.8l-1.4,4.8h4.2l-0.6,2.1h-4.2l-2.7,10.2
			c-0.5,1.7,0.1,2.5,1.2,2.5c0.7,0,1.4-0.3,2.3-0.9l0.6,0.9c-1.3,1.5-3,2.3-5.2,2.3C615,330.4,613.7,329,614.6,326z"/>
		<path d="M626,321.6c1.5-5.6,6.2-8.8,10.7-8.8c4.4,0,7.5,3.2,6,8.8c-1.5,5.6-6.1,8.8-10.7,8.8C627.3,330.4,624.5,327.1,626,321.6z
			 M638.2,321.6c1.3-4.8,0.6-7.1-1.9-7.1s-4.4,2.4-5.7,7.1c-1.3,4.8-0.6,7,1.9,7C634.9,328.7,636.9,326.4,638.2,321.6z"/>
		<path d="M642.9,328.4l2.5-0.5c0.5-1.8,1-3.6,1.5-5.4l4-14.9l-2.4-0.3l0.4-1.4l6.7-1.6l0.4,0.3l-1.5,4.9l-3.5,12.9
			c-0.5,1.8-0.9,3.6-1.4,5.4l2.2,0.5l-0.4,1.4h-9L642.9,328.4z"/>
		<path d="M666,328.1c-1.7,1.5-3.4,2.3-5.5,2.3c-4.1,0-6.1-3.3-4.7-8.6c1.5-5.5,5.8-9,9.9-9c1.8,0,3,0.6,3.8,2.1l1.9-7.1l-2.6-0.3
			l0.4-1.4l6.8-1.6l0.4,0.3l-1.5,4.9l-4.9,18.4l2.2,0.4l-0.4,1.4l-6.1,0.4L666,328.1z M662.8,327.9c1.2,0,2.3-0.5,3.4-1.4l2.7-10
			c-0.8-0.9-1.6-1.3-2.7-1.3c-2.3,0-4.8,2-6,6.5C659.1,325.8,660.4,327.9,662.8,327.9z"/>
		<path d="M696.1,313.2h6.7l-0.4,1.4l-2,0.4l-10.1,15.5c-3.4,5.3-5.9,7.8-8.9,7.8c-1.8,0-3.1-1-2.8-2.4c0.6-1.2,1.9-1.9,3.1-1.9
			c0.9,0,1.7,0.3,2.4,1.5l0.1,0.3c1.6-1.2,2.9-2.8,4-4.5l0.1-0.2L686,315l-1.7-0.3l0.4-1.4h9.1l-0.4,1.4l-2.8,0.4l1,10.6l6.6-10.6
			l-2.5-0.4L696.1,313.2z"/>
		<path d="M701.1,321.6c1.5-5.6,6.2-8.8,10.7-8.8c4.4,0,7.5,3.2,6,8.8c-1.5,5.6-6.1,8.8-10.7,8.8
			C702.3,330.4,699.6,327.1,701.1,321.6z M713.3,321.6c1.3-4.8,0.6-7.1-1.9-7.1s-4.4,2.4-5.7,7.1c-1.3,4.8-0.6,7,1.9,7
			C710,328.7,712,326.4,713.3,321.6z"/>
		<path d="M730.9,327.1c-2.3,2.2-4.6,3.2-6.8,3.2c-2.9,0-4.3-1.7-3-6.2l2.4-8.6l-2.1-0.5l0.4-1.4l6.3-0.7l0.3,0.4l-1.5,4.9l-1.5,5.8
			c-0.7,2.6-0.1,3.5,1.4,3.5c1.3,0,2.9-0.8,4.5-2l2.8-10L732,315l0.3-1.3l6.1-0.8l0.3,0.4l-1.4,4.9l-2.6,9.8l2,0.5l-0.4,1.4l-6,0.3
			L730.9,327.1z"/>
		<path d="M756.6,327.7c-2.2,1.8-3.5,2.7-5.7,2.7c-2.6,0-4.2-1.5-3.4-4.4c0.6-2.2,2.3-3.9,7.7-5.5c1-0.3,2.3-0.7,3.6-1l0.3-1
			c0.9-3.2,0.3-4.1-1.9-4.1c-0.4,0-0.9,0-1.5,0.1l-0.9,1.9c-0.7,1.7-1.7,2.4-2.8,2.4s-1.6-0.6-1.5-1.6c1.2-2.8,4.3-4.6,8.5-4.6
			c4,0,5.3,1.8,4.1,6.3l-2,7.6c-0.3,1.1,0,1.6,0.6,1.6c0.5,0,0.9-0.2,1.4-0.8l0.6,0.7c-1.3,1.6-2.5,2.2-4.2,2.2
			C757.5,330.3,756.6,329.3,756.6,327.7z M753.5,327.8c0.8,0,1.4-0.2,3.4-1.4l1.5-5.5c-1.1,0.3-2,0.6-2.7,0.8
			c-2.6,0.9-3.6,2.2-4,3.5C751.2,327.1,752.1,327.8,753.5,327.8z"/>
		<path d="M764.5,328.4l2.4-0.4c0.5-1.7,1.1-3.9,1.5-5.4l4-14.9l-2.4-0.3l0.4-1.4l6.6-1.6l0.4,0.3l-1.5,4.9l-1.5,5.6
			c2-1.7,3.9-2.5,5.8-2.5c3.7,0,5.9,3.1,4.4,8.6s-5.7,9-9.7,9c-1.8,0-3.2-0.6-4.1-2.3l-1,2.2l-5.8-0.4L764.5,328.4z M774.1,316.8
			l-2.6,9.6c0.8,1,1.7,1.5,2.9,1.5c2.3,0,4.6-2,5.8-6.3s0.1-6.4-2.2-6.4C776.9,315.2,775.6,315.8,774.1,316.8z"/>
		<path d="M787.4,321.6c1.5-5.6,6.2-8.8,10.7-8.8c4.4,0,7.5,3.2,6,8.8c-1.5,5.6-6.1,8.8-10.7,8.8
			C788.6,330.4,785.9,327.1,787.4,321.6z M799.6,321.6c1.3-4.8,0.6-7.1-1.9-7.1s-4.4,2.4-5.7,7.1c-1.3,4.8-0.6,7,1.9,7
			C796.3,328.7,798.3,326.4,799.6,321.6z"/>
		<path d="M817.2,327.1c-2.3,2.2-4.6,3.2-6.8,3.2c-2.9,0-4.3-1.7-3-6.2l2.4-8.6l-2.1-0.5l0.4-1.4l6.3-0.7l0.3,0.4l-1.5,4.9l-1.5,5.8
			c-0.7,2.6-0.1,3.5,1.4,3.5c1.3,0,2.9-0.8,4.5-2l2.8-10l-2.1-0.5l0.3-1.3l6.1-0.8l0.3,0.4l-1.4,4.9L821,328l2,0.5l-0.4,1.4l-6,0.3
			L817.2,327.1z"/>
		<path d="M827.5,326c0.3-1,0.5-1.9,0.9-3.2l2-7.4h-2.6l0.5-1.8l2.9-0.3l2.6-4.8h2.8l-1.4,4.8h4.2l-0.6,2.1h-4.2l-2.7,10.2
			c-0.5,1.7,0.1,2.5,1.2,2.5c0.7,0,1.4-0.3,2.3-0.9l0.6,0.9c-1.3,1.5-3,2.3-5.2,2.3C828,330.4,826.7,329,827.5,326z"/>
		<path d="M841.2,314.8l-0.3-1.1c1.7-1,3.1-2.1,4.3-3.7l-1-1c-0.8-0.8-0.9-1.7-0.7-2.6c0.4-1.5,1.6-2.3,2.9-2.3
			c0.9,0,1.5,0.3,1.9,0.8c0.2,0.8,0.1,1.7-0.1,2.6C847.4,310.6,844.5,313.3,841.2,314.8z M848.4,314.8l-0.3-1.1
			c1.7-1,3.1-2.1,4.3-3.7l-1-1c-0.8-0.8-0.9-1.7-0.7-2.6c0.4-1.5,1.6-2.3,2.9-2.3c0.9,0,1.5,0.3,1.9,0.8c0.2,0.8,0.1,1.7-0.1,2.6
			C854.6,310.6,851.7,313.3,848.4,314.8z"/>
	</g>
</g>
</svg>
