<?xml version="1.0" encoding="utf-8"?>
<!-- Generator: Adobe Illustrator 27.7.0, SVG Export Plug-In . SVG Version: 6.00 Build 0)  -->
<svg version="1.1" xmlns="http://www.w3.org/2000/svg" xmlns:xlink="http://www.w3.org/1999/xlink" x="0px" y="0px"
	 viewBox="0 0 243.9 243" style="enable-background:new 0 0 243.9 243;" xml:space="preserve">
<style type="text/css">
	.st0{fill:url(#SVGID_1_);stroke:#000000;stroke-width:2;stroke-miterlimit:10;}
	.st1{fill:url(#SVGID_00000085942013091412010180000008514661341574220204_);stroke:#000000;stroke-width:2;stroke-miterlimit:10;}
	.st2{fill:url(#SVGID_00000002383389285406430900000017243057888579366289_);stroke:#000000;stroke-width:2;stroke-miterlimit:10;}
</style>
<g id="Layer_2">
	<linearGradient id="SVGID_1_" gradientUnits="userSpaceOnUse" x1="121.8416" y1="79.8277" x2="125.8733" y2="199.6295">
		<stop  offset="0" style="stop-color:#C1272D"/>
		<stop  offset="0.1093" style="stop-color:#D7191D"/>
		<stop  offset="0.2501" style="stop-color:#ED0B0D"/>
		<stop  offset="0.3855" style="stop-color:#FB0303"/>
		<stop  offset="0.5085" style="stop-color:#FF0000"/>
		<stop  offset="0.5141" style="stop-color:#FE0101"/>
		<stop  offset="0.6301" style="stop-color:#E31214"/>
		<stop  offset="0.7486" style="stop-color:#D01E22"/>
		<stop  offset="0.8703" style="stop-color:#C5252A"/>
		<stop  offset="1" style="stop-color:#C1272D"/>
	</linearGradient>
	<path class="st0" d="M1.2,161.2c0.1-5.5-1-19.5,1.8-24.9C7,128.7,8.8,148.1,9,151c1.5,16.5,7.5,31,17.7,44.2
		c8.9,11.6,24.8,21.1,40.6,18.6c14.2-2.2,24.5-11.2,29.9-24.3c6.1-15-0.7-32.8-8.4-46c-7.4-12.6-19.4-25.2-20.1-40.4
		C67.9,85.7,79,70.9,89.5,57.9c10.3-12.7,22.6-22.9,36.9-31.1c15.2-8.7,31.8-15.4,48.6-20.3c8.2-2.3,16.5-5.4,25.1-5.6
		c9-0.1,18.7,0.1,26.5,2.3c3.1,0.9,12.5,3.2,16.1,7.3c2.7,3.1-21,3.1-24.2,3.2c-17.6,0.6-34.5,4.8-50.2,12.6
		c-27.2,13.5-57.5,38.6-57.4,71c0.1,16.8,6.4,33.7,13.4,48.8c5.9,12.9,16.2,28.5,17.1,42.7c1.1,17.4-9.5,33.5-23.8,43.3
		c-16.1,11-35.8,12.3-53.9,6C29.5,226.3,6.4,199.1,1.2,161.2z"/>
	
		<radialGradient id="SVGID_00000044887405248147982870000010504032415386981537_" cx="77.0755" cy="167.2542" r="58.4083" gradientUnits="userSpaceOnUse">
		<stop  offset="0" style="stop-color:#FFFFFF"/>
		<stop  offset="0.1557" style="stop-color:#C9C9FF"/>
		<stop  offset="0.2222" style="stop-color:#B3B3FF"/>
		<stop  offset="0.4288" style="stop-color:#7474FF"/>
		<stop  offset="0.6173" style="stop-color:#4242FF"/>
		<stop  offset="0.7813" style="stop-color:#1E1EFF"/>
		<stop  offset="0.9144" style="stop-color:#0808FF"/>
		<stop  offset="1" style="stop-color:#0000FF"/>
	</radialGradient>
	
		<path style="fill:url(#SVGID_00000044887405248147982870000010504032415386981537_);stroke:#000000;stroke-width:2;stroke-miterlimit:10;" d="
		M14.3,152.2c-0.1-0.9,0-1.9,0-2.8C16.8,120.9,25.6,96.9,45,76c9.9-10.7,28-26.5,40.8-33.3c2.2-1.2,8.9-6,10-5.5
		c1.2,0.6-3.2,6.7-5.3,9.2c-4.1,4.9-9.9,13.4-14,18.8c-8.4,11-12.9,25.4-12.3,39.3c0.7,14.8,8.6,24,16.6,35.6
		c14.3,20.9,10.6,54.2-15.8,63C33.1,213.6,16.1,178.6,14.3,152.2z"/>
	
		<linearGradient id="SVGID_00000086652815390374518540000003053764827893904020_" gradientUnits="userSpaceOnUse" x1="171.618" y1="195.5981" x2="183.7434" y2="39.0705">
		<stop  offset="0" style="stop-color:#D4002A"/>
		<stop  offset="2.049065e-02" style="stop-color:#D60B29"/>
		<stop  offset="0.1353" style="stop-color:#DF4327"/>
		<stop  offset="0.2536" style="stop-color:#E87524"/>
		<stop  offset="0.3728" style="stop-color:#EFA022"/>
		<stop  offset="0.493" style="stop-color:#F5C221"/>
		<stop  offset="0.6147" style="stop-color:#F9DD20"/>
		<stop  offset="0.7382" style="stop-color:#FCF01F"/>
		<stop  offset="0.865" style="stop-color:#FEFB1E"/>
		<stop  offset="1" style="stop-color:#FFFF1E"/>
	</linearGradient>
	
		<path style="fill:url(#SVGID_00000086652815390374518540000003053764827893904020_);stroke:#000000;stroke-width:2;stroke-miterlimit:10;" d="
		M151.4,178.4c0.1,0.2-0.2,0.3-0.3,0.2c-7.1-10.1-67.6-100.3,24.6-134.6c0,0,21.5-8,60.1-8.1c0.2,0,0.3,0.2,0.1,0.3
		c-4.2,2.3-29.5,16.8-29.8,29.8c0,0.1,0.1,0.2,0.3,0.2c1.9-0.8,13.8-5.8,29.3-5.9c0.2,0,0.3,0.2,0.1,0.3
		c-5.3,2.5-38.4,20.1-38.4,68.5c0,52.3-6.4,96.6-79.1,115c-0.2,0.1-0.3-0.2-0.2-0.3c5.9-3.5,35-22.8,42.7-63.8
		c2-10.4,1.1-21.1-2.3-31.2c-4.7-14-10-38.5,3.8-51.8c0.1-0.1,0-0.3-0.1-0.3C158.1,96.6,125.5,99.6,151.4,178.4z"/>
</g>
<g id="Layer_1">
</g>
</svg>
